<?xml version="1.0" ?><svg viewBox="0 0 512 512" xmlns="http://www.w3.org/2000/svg"><title/><g data-name="1" id="_1" fill="#414141"><path d="M255.13,452.35c-110.83,0-201-90.16-201-201s90.17-201,201-201a199.92,199.92,0,0,1,74.49,14.27,15,15,0,0,1,9.44,13.93v40.81a59.86,59.86,0,0,0,59.79,59.79h33.31a15,15,0,0,1,14.27,10.39,201.92,201.92,0,0,1,1.32,119.4,15,15,0,0,1-14.38,10.7H398.85a59.86,59.86,0,0,0-59.79,59.79v44.73a15,15,0,0,1-9.44,13.93A200.11,200.11,0,0,1,255.13,452.35Zm68.93-28.19h0ZM255.13,80.35c-94.29,0-171,76.71-171,171s76.71,171,171,171a170.45,170.45,0,0,0,53.93-8.67V379.43a89.89,89.89,0,0,1,89.79-89.79h23a172.23,172.23,0,0,0-.94-80.49h-22a89.89,89.89,0,0,1-89.79-89.79V89A170.46,170.46,0,0,0,255.13,80.35Z"/><path d="M372.06,114.65h-48a15,15,0,0,1,0-30h48a15,15,0,0,1,0,30Z"/><path d="M403.56,157.42H327.69a15,15,0,0,1,0-30h75.87a15,15,0,1,1,0,30Z"/><path d="M378.06,413.14h-54a15,15,0,0,1,0-30h54a15,15,0,1,1,0,30Z"/><path d="M409.56,365.1H330a15,15,0,0,1,0-30h79.53a15,15,0,1,1,0,30Z"/><path d="M441.13,266.35h-372a15,15,0,1,1,0-30h372a15,15,0,0,1,0,30Z"/><path d="M196.57,228.15a60,60,0,1,1,60-60A60.07,60.07,0,0,1,196.57,228.15Zm0-90a30,30,0,1,0,30,30A30,30,0,0,0,196.57,138.15Z"/><path d="M196.57,183.15a14.68,14.68,0,0,1-1.48-.08,14.51,14.51,0,0,1-1.45-.22,12,12,0,0,1-1.43-.36,14.17,14.17,0,0,1-1.38-.49c-.45-.19-.9-.4-1.33-.63s-.85-.48-1.26-.75-.81-.57-1.18-.87-.75-.65-1.1-1a12.8,12.8,0,0,1-1-1.09,16.64,16.64,0,0,1-1.63-2.45,13.2,13.2,0,0,1-.62-1.32,13.53,13.53,0,0,1-.5-1.39c-.14-.46-.26-.94-.36-1.42a14.46,14.46,0,0,1-.29-2.93,14.66,14.66,0,0,1,.07-1.48,14.51,14.51,0,0,1,.22-1.45c.1-.48.22-1,.36-1.43a14.25,14.25,0,0,1,.5-1.38,13.36,13.36,0,0,1,.62-1.33c.23-.43.49-.85.76-1.26a14.34,14.34,0,0,1,.87-1.18,14.67,14.67,0,0,1,1-1.1c.35-.34.72-.68,1.1-1a12.82,12.82,0,0,1,1.18-.87,13.48,13.48,0,0,1,1.26-.75c.43-.23.88-.44,1.33-.63a14.25,14.25,0,0,1,1.38-.5c.47-.14.95-.26,1.43-.36s1-.17,1.45-.22a14.54,14.54,0,0,1,2.95,0c.49.05,1,.13,1.46.22s.95.22,1.42.36a13.35,13.35,0,0,1,1.38.5c.45.19.9.4,1.33.63a12.3,12.3,0,0,1,1.26.75,14.5,14.5,0,0,1,1.19.87c.38.31.75.65,1.09,1a14.67,14.67,0,0,1,1,1.1,14.45,14.45,0,0,1,.88,1.18q.41.62.75,1.26c.23.43.44.88.63,1.33s.35.92.49,1.38a12,12,0,0,1,.36,1.43,14.51,14.51,0,0,1,.22,1.45,14.68,14.68,0,0,1,.08,1.48,15.49,15.49,0,0,1-.3,2.93,11.35,11.35,0,0,1-.36,1.42c-.14.47-.31.94-.49,1.39s-.4.89-.63,1.32a14.43,14.43,0,0,1-.75,1.26,14.61,14.61,0,0,1-.88,1.19,12.8,12.8,0,0,1-1,1.09c-.34.35-.71.68-1.09,1s-.78.6-1.19.87a14.43,14.43,0,0,1-1.26.75c-.43.23-.88.44-1.33.63a13.29,13.29,0,0,1-1.38.49,11.81,11.81,0,0,1-1.42.36,14.28,14.28,0,0,1-1.46.22A14.48,14.48,0,0,1,196.57,183.15Z"/></g></svg>