<?xml version="1.0" encoding="UTF-8"?>
<svg width="68px" height="90px" viewBox="0 0 68 90" version="1.1" xmlns="http://www.w3.org/2000/svg" xmlns:xlink="http://www.w3.org/1999/xlink">
    <title>flame</title>
    <defs>
        <linearGradient x1="50%" y1="0%" x2="50%" y2="100%" id="linearGradient-1">
            <stop stop-color="#FA6400" offset="0%"></stop>
            <stop stop-color="#E02020" offset="100%"></stop>
        </linearGradient>
        <linearGradient x1="50%" y1="27.4520989%" x2="50%" y2="100%" id="linearGradient-2">
            <stop stop-color="#FFE400" offset="0%"></stop>
            <stop stop-color="#E1241E" offset="68.4067892%"></stop>
            <stop stop-color="#9D0606" offset="100%"></stop>
        </linearGradient>
        <linearGradient x1="50%" y1="-13.9335274%" x2="50%" y2="119.933789%" id="linearGradient-3">
            <stop stop-color="#FFE302" offset="0%"></stop>
            <stop stop-color="#F7B500" offset="61.2608176%"></stop>
            <stop stop-color="#FA6400" offset="100%"></stop>
        </linearGradient>
    </defs>
    <g id="Page-1" stroke="none" stroke-width="1" fill="none" fill-rule="evenodd">
        <g id="flame" transform="translate(3.000000, 5.000000)" fill-rule="nonzero">
            <path d="M30.7200022,0 C12.7520009,16.2128011 0,35.3472025 0,48.0880034 C0,68.0080048 12.6320009,81.9200058 30.7200022,81.9200058 C48.8080035,81.9200058 61.4400043,68.0080048 61.4400043,48.0880034 C61.4400043,35.2960025 48.6048034,16.1376011 30.7200022,0 Z" id="Path" fill="url(#linearGradient-1)"></path>
            <path d="M32.729735,-2.22732438 L30.7199942,-4.04072977 L28.7102606,-2.22731649 C27.7605509,-1.37037898 26.8265365,-0.50713 25.9090222,0.361346105 L24.8159766,1.40595706 L23.73908,2.45516966 C18.9298444,7.18635555 14.6205236,12.0446691 10.9378356,16.8593664 L10.1298269,17.9285118 C9.86396334,18.284608 9.60158958,18.6403955 9.34275714,18.9958049 L8.5769353,20.0608292 L7.83267041,21.1231685 C0.987758547,31.0245095 -3,40.5205924 -3,48.0880034 C-3,69.6038503 10.9072129,84.9200058 30.7200022,84.9200058 C50.5327914,84.9200058 64.4400043,69.6038503 64.4400043,48.0880034 C64.4400043,36.3180575 54.7972234,19.900137 39.7980123,4.55867747 L38.7551438,3.50242196 C38.404725,3.15095203 38.0515276,2.80012053 37.6956035,2.44999699 L36.6197038,1.40181983 C36.2583787,1.05318178 35.8943791,0.705321238 35.527757,0.358307756 L34.4200758,-0.680121972 C33.8623535,-1.1979967 33.2988481,-1.71380908 32.729735,-2.22732438 Z M30.72,4.073 L31.3232387,4.64114651 L32.3181817,5.59087874 L33.2988303,6.54434584 C33.461066,6.7035457 33.6226952,6.86288426 33.7837124,7.02235305 L34.7424284,7.98066098 C35.2180709,8.46052868 35.6881076,8.94141622 36.1523909,9.42309517 L37.0732431,10.3874406 L37.9784913,11.3534903 C39.4740896,12.9647678 40.9035806,14.5814543 42.2615078,16.1950893 L43.0676329,17.1628365 C44.3967164,18.7749124 45.653145,20.3822446 46.8314624,21.9763725 L47.5290359,22.931197 L48.2076007,23.8824463 C48.3190963,24.0406674 48.4297889,24.1987225 48.5396731,24.3566034 L49.189234,25.3017285 L49.8191316,26.2422632 L50.429104,27.1778013 C50.9290393,27.9552216 51.4079464,28.7270142 51.8651432,29.4921215 L52.4033148,30.4069735 C52.5792026,30.7108094 52.751573,31.0135079 52.9203826,31.3150014 L53.4160846,32.2157992 L53.8901591,33.1089607 C54.276137,33.8499673 54.6393132,34.5825964 54.9790059,35.3057904 L55.3753214,36.1690268 C57.3642609,40.6049826 58.4400043,44.6619922 58.4400043,48.0880034 C58.4400043,66.4124088 47.0829889,78.9200058 30.7200022,78.9200058 C14.3570154,78.9200058 3,66.4124088 3,48.0880034 C3,43.0101087 5.36383546,36.5419744 9.56685999,29.5047809 L10.1254676,28.5837264 C10.4099434,28.1216531 10.7021449,27.6573112 11.0019264,27.1909286 L11.611553,26.2555099 C11.7148276,26.0991758 11.8189335,25.9426318 11.9238656,25.7858864 L12.5633275,24.843064 C12.779757,24.5280291 12.9994475,24.2122559 13.2223561,23.895812 L13.9006928,22.9445354 L14.5980788,21.9896391 C14.7158829,21.8302106 14.8344699,21.6706481 14.9538345,21.5109602 L15.6793093,20.5513937 C15.8017625,20.3912374 15.9249825,20.2309725 16.0489638,20.0706074 L16.8019454,19.1072818 L17.5729414,18.1419563 L18.3616931,17.175036 L19.1679418,16.2069257 C19.3037603,16.0454973 19.440297,15.8840362 19.5775467,15.7225509 L20.4095557,14.7534149 C20.5496352,14.5918662 20.6904169,14.4303101 20.8318952,14.2687551 L21.6890825,13.2995046 C22.2660567,12.653436 22.8540057,12.0076539 23.4525845,11.3626984 L24.3583818,10.3959524 L25.2798651,9.43085119 L26.2167755,8.46779965 C26.3741985,8.30748436 26.5322535,8.14727135 26.6909351,7.98716906 L27.6505012,7.02795134 L28.6248478,6.07179569 C28.7884562,5.91271409 28.9526696,5.75377694 29.1174828,5.59499269 L30.1135148,4.64418944 L30.72,4.073 Z" id="Path-Copy-2" fill="url(#linearGradient-2)"></path>
            <path d="M30.7200022,71.6800051 C19.4272014,71.6800051 10.2400007,63.2176045 10.2400007,52.8176037 C10.2400007,45.7568032 14.374401,41.3760029 15.7344011,40.0560028 C16.2336011,39.5568028 17.0448012,39.5568028 17.5440012,40.0560028 C17.7842858,40.2960554 17.9190211,40.6219538 17.9184013,40.9616029 L17.9184013,47.3616034 C17.9184013,52.3104037 21.9296016,56.321604 26.8784019,56.321604 C31.8272023,56.321604 35.8384025,52.3104037 35.8384025,47.3616034 C35.8384025,35.8416025 17.8160013,36.9984026 29.5296021,21.0688015 C29.9920021,20.4400014 30.7264022,20.4032014 31.2224022,20.5616015 C31.4816022,20.6464015 32.0832023,20.9200015 32.0832023,21.6464015 C32.0832023,27.0144019 36.0912026,30.4416022 40.3344029,34.0672024 C45.6752032,38.6336027 51.1984036,43.3536031 51.1984036,52.8208037 C51.2000036,63.2176045 42.012803,71.6800051 30.7200022,71.6800051 Z" id="Path" fill="url(#linearGradient-3)"></path>
        </g>
    </g>
</svg>