<?xml version="1.0" encoding="UTF-8"?>
<svg width="62px" height="82px" viewBox="0 0 62 82" version="1.1" xmlns="http://www.w3.org/2000/svg" xmlns:xlink="http://www.w3.org/1999/xlink">
    <defs>
        <linearGradient x1="50%" y1="0%" x2="50%" y2="100%" id="linearGradient-1">
            <stop stop-color="#FA6400" offset="0%"></stop>
            <stop stop-color="#E02020" offset="100%"></stop>
        </linearGradient>
        <linearGradient x1="50%" y1="-13.9335274%" x2="50%" y2="119.933789%" id="linearGradient-2">
            <stop stop-color="#FFE302" offset="0%"></stop>
            <stop stop-color="#F7B500" offset="61.2608176%"></stop>
            <stop stop-color="#FA6400" offset="100%"></stop>
        </linearGradient>
    </defs>
    <g id="Page-1" stroke="none" stroke-width="1" fill="none" fill-rule="evenodd">
        <g id="flame-solid" fill-rule="nonzero">
            <path d="M30.7200022,0 C12.7520009,16.2128011 0,35.3472025 0,48.0880034 C0,68.0080048 12.6320009,81.9200058 30.7200022,81.9200058 C48.8080035,81.9200058 61.4400043,68.0080048 61.4400043,48.0880034 C61.4400043,35.2960025 48.6048034,16.1376011 30.7200022,0 Z" id="Path" fill="url(#linearGradient-1)"></path>
            <path d="M30.7200022,71.6800051 C19.4272014,71.6800051 10.2400007,63.2176045 10.2400007,52.8176037 C10.2400007,45.7568032 14.374401,41.3760029 15.7344011,40.0560028 C16.2336011,39.5568028 17.0448012,39.5568028 17.5440012,40.0560028 C17.7842858,40.2960554 17.9190211,40.6219538 17.9184013,40.9616029 L17.9184013,47.3616034 C17.9184013,52.3104037 21.9296016,56.321604 26.8784019,56.321604 C31.8272023,56.321604 35.8384025,52.3104037 35.8384025,47.3616034 C35.8384025,35.8416025 17.8160013,36.9984026 29.5296021,21.0688015 C29.9920021,20.4400014 30.7264022,20.4032014 31.2224022,20.5616015 C31.4816022,20.6464015 32.0832023,20.9200015 32.0832023,21.6464015 C32.0832023,27.0144019 36.0912026,30.4416022 40.3344029,34.0672024 C45.6752032,38.6336027 51.1984036,43.3536031 51.1984036,52.8208037 C51.2000036,63.2176045 42.012803,71.6800051 30.7200022,71.6800051 Z" id="Path" fill="url(#linearGradient-2)"></path>
        </g>
    </g>
</svg>